# xmcd
#
# Track frame offsets: 
#        150
#        20379
#        38014
#        49802
#        69215
#        89473
#        106154
#        120227
#        136250
#        157204
#        175828
#        192582
#        204572
#
# Disc length: 3070 seconds
#
# Revision: 2
# Processed by: cddbd v1.5.2PL0 Copyright (c) Steve Scherf et al.
# Submitted via: ExactAudioCopy v0.99pb4
#
DISCID=aa0bfc0d
DTITLE=השמחות - אנשים מספרים
DYEAR=2001
DGENRE=
TTITLE0=פרצופים
TTITLE1=אנשים מספרים
TTITLE2=השמן נהיה כריש
TTITLE3=פינטוזים
TTITLE4=פרחים
TTITLE5=מלחמה אייטולה
TTITLE6=איזה יום היה לי סמואל
TTITLE7=נעימה
TTITLE8=עכשיו אני זמר
TTITLE9=בעל הקלטת
TTITLE10=כסף מזומן
TTITLE11=גיבור תרבותי
TTITLE12=אסלי סוקוט
EXTD=
EXTT0=
EXTT1=
EXTT2=
EXTT3=
EXTT4=
EXTT5=
EXTT6=
EXTT7=
EXTT8=
EXTT9=
EXTT10=
EXTT11=
EXTT12=
PLAYORDER=
